<svg width="332" height="96" fill="none" xmlns="http://www.w3.org/2000/svg">
<g clip-path="url(#a)"><path d="M45.787 78.105c16.626 0 30.105-13.479 30.105-30.105 0-16.627-13.479-30.105-30.105-30.105-16.627 0-30.105 13.479-30.105 30.105S29.16 78.105 45.787 78.105Z" fill="#0B3D91"/><path d="M44.01 24.015a.337.337 0 1 0 0-.675.337.337 0 0 0 0 .675ZM47.474 24.465a.337.337 0 1 0 0-.675.337.337 0 0 0 0 .675ZM52.02 30.585a.337.337 0 1 0 0-.675.337.337 0 0 0 0 .675ZM27.09 62.085a.337.337 0 1 0 0-.675.337.337 0 0 0 0 .675ZM27.967 64.785a.337.337 0 1 0 0-.675.337.337 0 0 0 0 .675ZM23.782 62.405a.253.253 0 1 0 0-.505.253.253 0 0 0 0 .505ZM37.507 67.71a.254.254 0 1 0 0-.507.254.254 0 0 0 0 .507ZM59.033 63.238a.253.253 0 1 0 0-.506.253.253 0 0 0 0 .506ZM65.29 56.444a.254.254 0 1 0 0-.508.254.254 0 0 0 0 .508ZM34.627 32.474a.253.253 0 1 0 0-.505.253.253 0 0 0 0 .505ZM41.512 27.418a.253.253 0 1 0 0-.506.253.253 0 0 0 0 .506ZM40.764 26.923a.253.253 0 1 0 0-.506.253.253 0 0 0 0 .506ZM40.09 26.428a.253.253 0 1 0 0-.506.253.253 0 0 0 0 .506ZM35.707 33.78a.253.253 0 1 0 0-.505.253.253 0 0 0 0 .505ZM45.848 20.623a.253.253 0 1 0 0-.506.253.253 0 0 0 0 .506ZM47.514 27.913a.253.253 0 1 0 0-.506.253.253 0 0 0 0 .506ZM44.887 26.49a.253.253 0 1 0 0-.506.253.253 0 0 0 0 .505ZM40.387 28.425a.253.253 0 1 0 0-.505.253.253 0 0 0 0 .505ZM60.232 69.915a.253.253 0 1 0 0-.506.253.253 0 0 0 0 .506ZM26.662 63.711a.254.254 0 1 0 0-.507.254.254 0 0 0 0 .507ZM44.257 66.974a.254.254 0 1 0 0-.508.254.254 0 0 0 0 .508ZM31.898 63.508a.254.254 0 1 0 0-.507.254.254 0 0 0 0 .508ZM34.087 67.08a.254.254 0 1 0 0-.506.254.254 0 0 0 0 .507ZM50.197 64.83a.253.253 0 1 0 0-.506.253.253 0 0 0 0 .506ZM59.078 59.818a.253.253 0 1 0 0-.506.253.253 0 0 0 0 .506ZM65.812 62.894a.253.253 0 1 0 0-.505.253.253 0 0 0 0 .505ZM68.107 64.363a.253.253 0 1 0 0-.506.253.253 0 0 0 0 .506ZM68.484 60.358a.253.253 0 1 0 0-.506.253.253 0 0 0 0 .506ZM35.003 54.688a.253.253 0 1 0 0-.506.253.253 0 0 0 0 .506ZM35.1 60.578a.337.337 0 1 0 0-.675.337.337 0 0 0 0 .675ZM37.124 64.853a.337.337 0 1 0 0-.675.337.337 0 0 0 0 .675ZM61.38 60.398a.337.337 0 1 0 0-.675.337.337 0 0 0 0 .675ZM70.11 59.903a.338.338 0 1 0 0-.676.338.338 0 0 0 0 .676ZM65.79 58.057a.337.337 0 1 0 0-.674.337.337 0 0 0 0 .674ZM61.38 58.237a.337.337 0 1 0 0-.674.337.337 0 0 0 0 .674ZM52.283 23.466l.839-.08-.838-.047a.372.372 0 0 0-.32-.31l-.08-.836-.048.842a.37.37 0 0 0-.286.319l-.858.078.864.046a.372.372 0 0 0 .295.285l.078.861.046-.86a.376.376 0 0 0 .308-.298ZM38.118 32.81l.84-.08-.838-.048a.372.372 0 0 0-.32-.31l-.08-.835-.047.842a.37.37 0 0 0-.288.318l-.858.078.864.047a.372.372 0 0 0 .296.284l.078.861.046-.859a.373.373 0 0 0 .307-.298ZM69.494 57.513l.84-.08-.838-.047a.372.372 0 0 0-.32-.31l-.08-.836-.047.843a.37.37 0 0 0-.287.318l-.858.077.864.047a.372.372 0 0 0 .296.285l.078.861.046-.86a.374.374 0 0 0 .306-.298ZM35.283 70.43l.84-.08-.838-.048a.372.372 0 0 0-.32-.31l-.08-.835-.047.842a.37.37 0 0 0-.288.318l-.858.078.864.047a.37.37 0 0 0 .296.285l.078.86.046-.859a.374.374 0 0 0 .307-.298ZM66.828 64.13l.84-.08-.838-.048a.372.372 0 0 0-.32-.31l-.08-.835-.047.841a.37.37 0 0 0-.287.318l-.858.078.864.047a.372.372 0 0 0 .296.285l.078.86.046-.859a.373.373 0 0 0 .306-.298Z" fill="#fff"/><path d="M52.926 40.789c-3.5 1.36-6.914 2.575-9.795 3.476-5.854 1.833-21.87 6.795-31.545 13.05l.81.315c5.895-3.33 9.727-4.376 13.41-5.535 4.005-1.26 16.952-4.29 22.815-5.94 1.98-.557 4.3-1.287 6.758-2.175a60.237 60.237 0 0 0-2.453-3.191Zm4.277 5.894A38.768 38.768 0 0 1 55.148 48c-2.88 1.665-16.921 11.25-20.115 13.455-3.195 2.205-12.06 10.575-14.67 13.005l-.09.99c8.415-7.56 11.055-9.425 14.4-11.97 4.14-3.15 12.704-8.977 15.615-10.845a506.6 506.6 0 0 0 7.544-4.929l-.11-.185c-.17-.279-.343-.557-.52-.838ZM70.357 32.79c-4.1 2.403-10.56 5.303-16.83 7.764a54.553 54.553 0 0 1 2.43 3.215c4.929-1.816 10.336-4.252 14.626-7.2-2.044 1.937-8.8 6.986-12.92 9.801.212.346.417.692.616 1.036 6.241-4.177 10.441-7.251 12.889-9.307 3.375-2.835 11.07-9.18 13.995-17.685-5.131 6.526-11.197 10.26-14.806 12.376Z" fill="#FC3D21"/><path d="M41.913 55.454c-.664-.835-1.582-1.954-2.27-2.822a52.46 52.46 0 0 1-2.557-3.503l-.763.191a53.265 53.265 0 0 0 3.132 4.38c.834 1.05 1.593 1.894 1.981 2.42.079.107.235.342.446.656l.735-.5c-.239-.26-.475-.534-.704-.822Zm4.845 4.398c-.545-.516-1.867-1.377-3.244-2.67l-.918.633c.89 1.252 2.1 2.79 3.048 3.239 1.428.676 1.812-.54 1.114-1.202Zm7.217-18.742c-7.869-9.905-17.481-15.346-21.626-12.053-3.219 2.558-1.897 10.032 2.54 17.884l.681-.233c-4.478-7.65-5.703-14.759-2.667-17.171 3.815-3.032 13.027 2.43 20.668 12.047a57.017 57.017 0 0 1 4.15 5.937c4.509 7.462 5.893 14.21 2.777 16.966-.953.843-3.866 1.173-7.682-.544-.053.067.032.247.099.291 3.294 1.325 6.45 1.83 8.042.565 3.828-3.043.887-13.785-6.982-23.69ZM20.227 42.285h5.04l4.23 7.178V43.86c0-.63-.799-1.451-1.08-1.575h3.487c-.213.056-.9.889-.9 1.575v8.235c0 .506.732 1.204 1.08 1.474h-4.86l-4.297-7.212v5.67c0 .563.551 1.103 1.125 1.564h-3.713c.53-.225 1.035-.934 1.08-1.496.045-.563 0-7.819 0-8.134 0-.686-.663-1.248-1.192-1.676Z" fill="#fff"/><path d="M66.33 53.569h6.704c-.37-.09-.787-.529-1.012-1.114-.225-.585-3.78-10.17-3.78-10.17h-2.55c-.722.52-1.497 1.07-2.324 1.648a.825.825 0 0 1-.009.062c-.11.675-2.106 7.9-2.227 8.258-.169.495-1.035 1.046-1.384 1.338h3.611c-.36-.405-.652-.799-.585-1.248.068-.45.27-1.35.27-1.35h3.735c.17.45.295.854.36 1.237.08.461-.393.979-.81 1.339Zm-2.948-4.017 1.26-4.117 1.665 4.117h-2.925Zm-.568-6.856.557-.411h-.98c.098.09.26.232.423.411ZM37.17 52.343c.067-.45.27-1.35.27-1.35h3.734c.17.45.295.854.36 1.237.08.461-.393.979-.81 1.339h5.904l.367-.247a2.248 2.248 0 0 1-.578-.867c-.225-.585-3.78-10.17-3.78-10.17h-5.85c.281.259 1.091.956.967 1.71-.11.675-2.106 7.9-2.227 8.258-.169.495-1.035 1.046-1.384 1.338h3.611c-.36-.405-.652-.799-.585-1.248Zm1.867-6.908 1.665 4.117h-2.925l1.26-4.117ZM57.561 47.886a461.14 461.14 0 0 1-3.487 2.299c.55.266.987.6 1.029 1.032.078.812-1.553 1.204-3.027 1.035a3.64 3.64 0 0 1-.86-.214l-.928.597c-.32.205-.706.457-1.148.748v1.164c.293-.573.932-1.087 1.429-1.113.214-.011.956.675 4.016.506 1.485-.082 4.354-1.665 4.309-3.487-.027-1.078-.59-1.918-1.333-2.567ZM49.14 50.7v1.186l.8-.531a5.912 5.912 0 0 1-.8-.655Zm7.376-3.559a10.243 10.243 0 0 0-.85-.447c-1.44-.675-2.948-.799-3.263-1.71-.222-.642.405-1.237 1.935-1.215 1.53.023 2.947.934 3.33 1.26v-2.902c-.113.112-.606.678-1.058.585-.866-.18-2.34-.415-4.027-.405-1.935.011-3.6 1.506-3.656 3.397-.08 2.644 2.036 3.364 3.228 3.78.123.043.264.089.416.137 1.144-.744 2.048-1.317 2.578-1.622a29.05 29.05 0 0 0 1.367-.858Z" fill="#fff"/></g><path d="M124.098 34.818h-4.717v17.847h-.23l-12.324-17.847h-4.245V61h4.743V43.166h.218L119.879 61h4.219V34.818ZM132.628 61l2.161-6.456h9.843L146.806 61h5.062l-9.23-26.182h-5.855L127.566 61h5.062Zm3.439-10.266 3.541-10.547h.205l3.541 10.547h-7.287Zm33.057-8.718h4.564c-.09-4.424-3.861-7.556-9.435-7.556-5.497 0-9.627 3.094-9.614 7.722 0 3.758 2.672 5.919 6.98 7.031l2.979.767c2.825.716 4.692 1.598 4.705 3.63-.013 2.238-2.135 3.734-5.229 3.734-2.966 0-5.267-1.33-5.459-4.078h-4.666c.192 5.203 4.065 8.13 10.163 8.13 6.277 0 9.921-3.132 9.933-7.747-.012-4.538-3.758-6.61-7.696-7.543l-2.454-.613c-2.148-.512-4.475-1.42-4.449-3.605.013-1.969 1.777-3.414 4.743-3.414 2.825 0 4.692 1.317 4.935 3.542ZM181.214 61l2.161-6.456h9.843L195.392 61h5.062l-9.23-26.182h-5.855L176.152 61h5.062Zm3.439-10.266 3.541-10.547h.205l3.541 10.547h-7.287Zm42.408-8.718h4.564c-.089-4.424-3.861-7.556-9.435-7.556-5.497 0-9.626 3.094-9.613 7.722 0 3.758 2.672 5.919 6.98 7.031l2.979.767c2.825.716 4.691 1.598 4.704 3.63-.013 2.238-2.135 3.734-5.229 3.734-2.966 0-5.267-1.33-5.458-4.078h-4.667c.192 5.203 4.066 8.13 10.164 8.13 6.277 0 9.92-3.132 9.933-7.747-.013-4.538-3.759-6.61-7.696-7.543l-2.455-.613c-2.147-.512-4.474-1.42-4.448-3.605.012-1.969 1.777-3.414 4.742-3.414 2.826 0 4.692 1.317 4.935 3.542ZM244.7 61.383c4.577 0 7.722-2.237 8.54-5.65l-4.321-.486c-.627 1.662-2.161 2.531-4.155 2.531-2.992 0-4.973-1.968-5.012-5.33h13.679v-1.42c0-6.89-4.142-9.92-8.974-9.92-5.625 0-9.294 4.13-9.294 10.189 0 6.162 3.618 10.087 9.537 10.087Zm-4.935-12.055c.141-2.506 1.995-4.615 4.756-4.615 2.659 0 4.449 1.943 4.474 4.615h-9.23Zm23.232 12.068c3.081 0 4.922-1.444 5.766-3.093h.153V61h4.449V47.858c0-5.19-4.231-6.75-7.977-6.75-4.129 0-7.3 1.84-8.323 5.42l4.321.614c.461-1.342 1.765-2.493 4.027-2.493 2.148 0 3.324 1.1 3.324 3.03v.077c0 1.33-1.393 1.393-4.858 1.764-3.809.409-7.453 1.547-7.453 5.97 0 3.86 2.825 5.906 6.571 5.906Zm1.202-3.4c-1.931 0-3.311-.882-3.311-2.583 0-1.777 1.547-2.518 3.618-2.812 1.214-.166 3.643-.473 4.244-.959v2.314c0 2.186-1.764 4.04-4.551 4.04ZM278.018 61h4.628V49.456c0-2.493 1.88-4.257 4.424-4.257.779 0 1.751.14 2.147.268V41.21c-.422-.077-1.15-.128-1.662-.128-2.25 0-4.129 1.279-4.845 3.554h-.204v-3.272h-4.488V61Zm22.031.383c4.934 0 8.079-2.927 8.412-7.095h-4.424c-.396 2.11-1.917 3.324-3.95 3.324-2.889 0-4.756-2.416-4.756-6.43 0-3.963 1.905-6.341 4.756-6.341 2.224 0 3.592 1.432 3.95 3.324h4.424c-.32-4.257-3.644-7.057-8.438-7.057-5.753 0-9.383 4.155-9.383 10.15 0 5.945 3.541 10.125 9.409 10.125Zm16.839-11.889c0-2.838 1.765-4.474 4.245-4.474 2.429 0 3.861 1.547 3.861 4.193V61h4.627V48.497c0-4.743-2.684-7.389-6.762-7.389-3.017 0-4.935 1.368-5.843 3.592h-.23v-9.882h-4.525V61h4.627V49.494Z" fill="#fff"/><defs><clipPath id="a"><path fill="#fff" transform="translate(11.25 17.25)" d="M0 0h74.25v61.5H0z"/></clipPath></defs></svg>
